<?xml version="1.0" encoding="UTF-8"?>
<svg id="Capa_1" data-name="Capa 1" xmlns="http://www.w3.org/2000/svg" viewBox="0 0 505 524">
  <defs>
    <style>
      .cls-1 {
        fill: #fff;
      }
    </style>
  </defs>
  <path class="cls-1" d="M371.72,70.6c-41.27-41.27-99.15-7.86-145.19,12.94l-2.23,45.9c-26.46,11.93-49.01,19.61-62.2,6.42-22.65-22.65-14.32-52.19,6.6-73.12,16.06-16.06,39.3-26.67,61.09-25.52l1.45-32.98c-31.85-3.17-64.54,11.74-87.78,34.98-33.85,33.85-47.89,85.18-9.16,123.91,27.51,27.51,58.17,24.48,88.01,12.82l2.23-45.89c47.83-18.83,93.51-59.77,120.51-32.78,21.22,21.22,12.9,53.03-10.9,76.84-22.67,22.67-58.8,38.16-96.94,32.14l.59,35.56h0v39.97l47.97-41.19c28.32-5.87,53.45-20.47,72.48-39.5,37.87-37.87,50.77-93.21,13.48-130.49Z"/>
  <g>
    <path class="cls-1" d="M68.56,498.98c19.79,0,36.48-9.78,36.48-27.42,0-36.48-95.13-18.84-95.13-78.44,0-32.19,27.18-47.69,55.32-47.69,19.31,0,39.1,7.39,51.02,21.94l-14.31,13.11c-8.58-9.54-22.65-14.78-36-14.78-17.41,0-33.14,8.82-33.14,27.66,0,30.04,94.42,24.08,94.42,78.2,0,31-28.37,48.64-59.85,48.64-24.32,0-50.31-10.25-67-33.14l14.54-15.02c13.35,18.36,34.81,26.94,53.65,26.94Z"/>
    <path class="cls-1" d="M216.38,518.53c-34.57,0-69.14-20.98-69.14-63.66v-104.67h22.65v104.67c0,29.09,23.6,44.11,47.21,44.11s46.49-14.78,46.49-44.11v-104.67h22.65v104.67c0,42.2-35.05,63.66-69.86,63.66Z"/>
    <path class="cls-1" d="M337.26,516.86h-22.41v-166.66h82.02c68.43,0,77.73,82.26,28.37,105.15,21.22,13.83,31.23,36.48,31.23,61.51h-22.65c0-29.09-15.5-55.79-61.04-55.79h-35.53v55.79ZM396.87,370.23h-59.61v70.81h59.61c49.83,0,49.83-70.81,0-70.81Z"/>
    <path class="cls-1" d="M482.22,516.86v-166.66h22.41v166.66h-22.41Z"/>
  </g>
</svg>