<?xml version="1.0" encoding="UTF-8"?>
<svg id="Capa_1" data-name="Capa 1" xmlns="http://www.w3.org/2000/svg" viewBox="0 0 915 277">
  <path d="M259.81,66.77c-41-41-98.51-7.81-144.26,12.85l-2.22,45.6c-26.28,11.85-48.7,19.48-61.79,6.38-22.5-22.5-14.23-51.86,6.56-72.65,15.96-15.96,39.04-26.5,60.69-25.36l1.44-32.77c-31.65-3.15-64.13,11.67-87.21,34.75C-.61,69.2-14.57,120.21,23.91,158.69c27.34,27.34,57.8,24.33,87.45,12.74l2.22-45.59c47.53-18.71,92.91-59.38,119.73-32.56,21.08,21.08,12.81,52.69-10.83,76.34-22.52,22.52-58.42,37.92-96.32,31.94l.58,35.34h0v39.71l47.66-40.92c28.14-5.83,53.1-20.34,72.01-39.25,37.63-37.63,50.44-92.61,13.4-129.65Z"/>
  <g>
    <path d="M446.35,209.49c21.23,0,39.14-10.49,39.14-29.42,0-39.14-102.08-20.21-102.08-84.17,0-34.54,29.16-51.17,59.35-51.17,20.72,0,41.96,7.93,54.75,23.54l-15.35,14.07c-9.21-10.23-24.3-15.86-38.63-15.86-18.68,0-35.56,9.47-35.56,29.68,0,32.23,101.31,25.84,101.31,83.91,0,33.26-30.44,52.19-64.21,52.19-26.09,0-53.98-11-71.89-35.56l15.61-16.12c14.33,19.7,37.35,28.91,57.56,28.91Z"/>
    <path d="M604.96,230.47c-37.1,0-74.19-22.51-74.19-68.31V49.86h24.3v112.31c0,31.21,25.33,47.33,50.65,47.33s49.89-15.86,49.89-47.33V49.86h24.3v112.31c0,45.28-37.61,68.31-74.96,68.31Z"/>
    <path d="M734.66,228.68h-24.05V49.86h88.01c73.42,0,83.4,88.26,30.44,112.82,22.77,14.84,33.51,39.14,33.51,66h-24.3c0-31.21-16.63-59.86-65.49-59.86h-38.12v59.86ZM798.62,71.34h-63.96v75.98h63.96c53.47,0,53.47-75.98,0-75.98Z"/>
    <path d="M890.2,228.68V49.86h24.05v178.82h-24.05Z"/>
  </g>
</svg>